# xmcd
#
# Track frame offsets:
#	150
#	10085
#	24105
#	33747
#	47107
#	57087
#	69925
#	81532
#	91992
#	101055
#	110895
#	122287
#	132947
#	145202
#	157117
#	170020
#	179077
#	189845
#	200740
#	209252
#	221640
#	231505
#	242110
#	250995
#	260857
#	272785
#	281470
#	290377
#
# Disc length: 4013
#
# Revision: 3
# Processed by: cddbd v1.5.1PL0 Copyright (c) Steve Scherf et al.
# Submitted via: audiograbber 1.81.03
# Normalized: r2:DSETVAR1
#
DISCID=b10fab1c
DTITLE=Various Artist - Sun Country Collection CD1
DYEAR=1991
DGENRE=Country
TTITLE0=Johnny Cash - Hey Porter
TTITLE1=Jerry Lee Lewis - cold cold heart
TTITLE2=Warren Smith - (tell me) who
TTITLE3=Carl Perkins - turn around
TTITLE4=Slim Rhodes - uncertain love
TTITLE5=Gene Steele - Daisy Bread Boogie
TTITLE6=Ernie Chaffin - feelin' love
TTITLE7=Miller Sisters, the - chains of love
TTITLE8=Doug Poindexter - my kind of carryin' on
TTITLE9=Eddie Bond - show me
TTITLE10=Malcolm Yelvington - Blues in the bottom of my shoes (Way down Blues)
TTITLE11=Cast King - when you stop loving me
TTITLE12=Mack Self - easy to love
TTITLE13=Johnny Cash - home of the Blues
TTITLE14=Carl Perkins - let the jukebox keep on playing
TTITLE15=Warren Smith - tonight will be the last night
TTITLE16=Jerry Lee Lewis - will the circle be unbroken
TTITLE17=Eddie Bond - standing in your window
TTITLE18=Gene Simmons - down on the border
TTITLE19=Maggie Sue Wimberley - how long
TTITLE20=Jimmy Wages - heartbrakin' love
TTITLE21=Carl Mann - I'm bluer than anyone can be
TTITLE22=Dane Stinit - Muddy Ole River
TTITLE23=Thomas Wayne - Tragedy
TTITLE24=Johnny Cash - You're the nearest thing to heaven
TTITLE25=Eddie Bond - this old heart of mine
TTITLE26=Jack Clement - that black haired man
TTITLE27=Charlie Rich - who will the next fool be
EXTD=
EXTT0=
EXTT1=
EXTT2=
EXTT3=
EXTT4=
EXTT5=
EXTT6=
EXTT7=
EXTT8=
EXTT9=
EXTT10=
EXTT11=
EXTT12=
EXTT13=
EXTT14=
EXTT15=
EXTT16=
EXTT17=
EXTT18=
EXTT19=
EXTT20=
EXTT21=
EXTT22=
EXTT23=
EXTT24=
EXTT25=
EXTT26=
EXTT27=
PLAYORDER=
